<?xml version="1.0" encoding="utf-8"?>
<svg version="1.1" id="Layer_1" xmlns="http://www.w3.org/2000/svg" x="0px" y="0px"
	 viewBox="0 0 64 64" style="enable-background:new 0 0 64 64;" xml:space="preserve">
<style type="text/css">
	.st0{fill:#FFFFFF;}
	.st1{fill:url(#SVGID_1_);}
	.st2{fill:url(#SVGID_00000060015759403550671620000002647560660901621923_);}
	.st3{fill:url(#SVGID_00000181785872056753307840000005906011188592971165_);}
	.st4{fill:url(#SVGID_00000134239051061423360110000014879778899600975530_);}
	.st5{fill:url(#SVGID_00000170237989216441659230000003191510174969084334_);}
	.st6{fill:url(#SVGID_00000066516089732853758860000012412590926277478335_);}
	.st7{fill:url(#SVGID_00000083806216018383762860000009444341700728173743_);}
	.st8{fill:url(#SVGID_00000013186499102020433860000013284878923342356881_);}
</style>
<rect x="1.9" y="1.9" class="st0" width="60" height="60"/>
<g>

		<radialGradient id="SVGID_1_" cx="-1548.1515" cy="-366.6928" r="9.293617e-02" gradientTransform="matrix(-593.0016 -1227.9952 1826.5042 -882.0229 -248226.3594 -2224463)" gradientUnits="userSpaceOnUse">
		<stop  offset="0.2439" style="stop-color:#FF1B90"/>
		<stop  offset="0.4367" style="stop-color:#F80261"/>
		<stop  offset="0.6885" style="stop-color:#ED00C0"/>
		<stop  offset="0.7768" style="stop-color:#C500E9"/>
		<stop  offset="0.8932" style="stop-color:#7017FF"/>
	</radialGradient>
	<path class="st1" d="M47.3,15h-5c-1,0-1.7,0.7-1.7,1.7c0,1.7,0,3.4,0,5.1c0,1,0.8,1.7,1.7,1.7h5c1,0,1.8-0.7,1.8-1.7
		c0-1.7,0-3.4,0-5C49,15.7,48.3,15,47.3,15z"/>

		<radialGradient id="SVGID_00000085956136612310977520000013547250689349247163_" cx="-1547.1064" cy="-365.4467" r="9.293617e-02" gradientTransform="matrix(317.9999 -498.0006 517.9916 330.7652 681297.25 -649507.625)" gradientUnits="userSpaceOnUse">
		<stop  offset="0" style="stop-color:#FFD600"/>
		<stop  offset="0.4844" style="stop-color:#FF6930"/>
		<stop  offset="0.7344" style="stop-color:#FE3B36"/>
		<stop  offset="1" style="stop-color:#FE3B36;stop-opacity:0"/>
	</radialGradient>
	<path style="fill:url(#SVGID_00000085956136612310977520000013547250689349247163_);" d="M47.3,15h-5c-1,0-1.7,0.7-1.7,1.7
		c0,1.7,0,3.4,0,5.1c0,1,0.8,1.7,1.7,1.7h5c1,0,1.8-0.7,1.8-1.7c0-1.7,0-3.4,0-5C49,15.7,48.3,15,47.3,15z"/>

		<radialGradient id="SVGID_00000176041424722917590560000012021240431196031672_" cx="-1548.1515" cy="-366.6928" r="9.293617e-02" gradientTransform="matrix(-593.0016 -1227.9952 1826.5042 -882.0229 -248226.3594 -2224463)" gradientUnits="userSpaceOnUse">
		<stop  offset="0.2439" style="stop-color:#FF1B90"/>
		<stop  offset="0.4367" style="stop-color:#F80261"/>
		<stop  offset="0.6885" style="stop-color:#ED00C0"/>
		<stop  offset="0.7768" style="stop-color:#C500E9"/>
		<stop  offset="0.8932" style="stop-color:#7017FF"/>
	</radialGradient>
	<path style="fill:url(#SVGID_00000176041424722917590560000012021240431196031672_);" d="M32,40.5c4.7,0,8.5-3.8,8.5-8.5
		s-3.8-8.5-8.5-8.5s-8.5,3.8-8.5,8.5S27.3,40.5,32,40.5z"/>

		<radialGradient id="SVGID_00000051370414756888459410000000036220274440896404_" cx="-1547.1064" cy="-365.4467" r="9.293617e-02" gradientTransform="matrix(317.9999 -498.0006 517.9916 330.7652 681297.25 -649507.625)" gradientUnits="userSpaceOnUse">
		<stop  offset="0" style="stop-color:#FFD600"/>
		<stop  offset="0.4844" style="stop-color:#FF6930"/>
		<stop  offset="0.7344" style="stop-color:#FE3B36"/>
		<stop  offset="1" style="stop-color:#FE3B36;stop-opacity:0"/>
	</radialGradient>
	<path style="fill:url(#SVGID_00000051370414756888459410000000036220274440896404_);" d="M32,40.5c4.7,0,8.5-3.8,8.5-8.5
		s-3.8-8.5-8.5-8.5s-8.5,3.8-8.5,8.5S27.3,40.5,32,40.5z"/>

		<radialGradient id="SVGID_00000101075295429870053880000007734648951517156485_" cx="-1548.1515" cy="-366.6928" r="9.293617e-02" gradientTransform="matrix(-593.0016 -1227.9952 1826.5042 -882.0229 -248226.3594 -2224463)" gradientUnits="userSpaceOnUse">
		<stop  offset="0.2439" style="stop-color:#FF1B90"/>
		<stop  offset="0.4367" style="stop-color:#F80261"/>
		<stop  offset="0.6885" style="stop-color:#ED00C0"/>
		<stop  offset="0.7768" style="stop-color:#C500E9"/>
		<stop  offset="0.8932" style="stop-color:#7017FF"/>
	</radialGradient>
	<path style="fill:url(#SVGID_00000101075295429870053880000007734648951517156485_);" d="M44.8,36.8c-1,2.7-2.7,4.8-5.1,6.5
		c-4.3,2.9-9.9,3.2-14.3,0.6c-2.3-1.3-4-3.1-5.3-5.4c-1.7-3.1-2.1-6.5-1.2-9.9H15v18.6c0,1.1,0.7,1.8,1.8,1.8c0.7,0,1.4,0,2,0h28.4
		c1.2,0,1.8-0.7,1.8-1.9V28.6h-3.9C45.9,31.4,45.8,34.1,44.8,36.8z"/>

		<radialGradient id="SVGID_00000046338961815980013130000010845013984439969172_" cx="-1547.1064" cy="-365.4467" r="9.293617e-02" gradientTransform="matrix(317.9999 -498.0006 517.9916 330.7652 681297.25 -649507.625)" gradientUnits="userSpaceOnUse">
		<stop  offset="0" style="stop-color:#FFD600"/>
		<stop  offset="0.4844" style="stop-color:#FF6930"/>
		<stop  offset="0.7344" style="stop-color:#FE3B36"/>
		<stop  offset="1" style="stop-color:#FE3B36;stop-opacity:0"/>
	</radialGradient>
	<path style="fill:url(#SVGID_00000046338961815980013130000010845013984439969172_);" d="M44.8,36.8c-1,2.7-2.7,4.8-5.1,6.5
		c-4.3,2.9-9.9,3.2-14.3,0.6c-2.3-1.3-4-3.1-5.3-5.4c-1.7-3.1-2.1-6.5-1.2-9.9H15v18.6c0,1.1,0.7,1.8,1.8,1.8c0.7,0,1.4,0,2,0h28.4
		c1.2,0,1.8-0.7,1.8-1.9V28.6h-3.9C45.9,31.4,45.8,34.1,44.8,36.8z"/>

		<radialGradient id="SVGID_00000060725942592969241920000002644905411435502469_" cx="-1548.1515" cy="-366.6928" r="9.293617e-02" gradientTransform="matrix(-593.0016 -1227.9952 1826.5042 -882.0229 -248226.3594 -2224463)" gradientUnits="userSpaceOnUse">
		<stop  offset="0.2439" style="stop-color:#FF1B90"/>
		<stop  offset="0.4367" style="stop-color:#F80261"/>
		<stop  offset="0.6885" style="stop-color:#ED00C0"/>
		<stop  offset="0.7768" style="stop-color:#C500E9"/>
		<stop  offset="0.8932" style="stop-color:#7017FF"/>
	</radialGradient>
	<path style="fill:url(#SVGID_00000060725942592969241920000002644905411435502469_);" d="M60,0H4C1.8,0,0,1.8,0,4v56
		c0,2.2,1.8,4,4,4h56c2.2,0,4-1.8,4-4V4C64,1.8,62.2,0,60,0z M54.1,49.1c0,2.5-1.9,4.7-4.5,5c-0.2,0-0.4,0-0.6,0H14.9
		c-2.5,0-4.7-1.9-5-4.4c0-0.3-0.1-0.6-0.1-0.9V15c0-2.6,1.7-4.6,4.2-5.1c0.3-0.1,0.6-0.1,0.9-0.1c11.3,0,22.7,0,34,0
		c2.7,0,4.8,2,5.1,4.6c0,0.1,0,0.3,0,0.4v34.3H54.1z"/>

		<radialGradient id="SVGID_00000040542207840161467180000015598525494273085357_" cx="-1547.1064" cy="-365.4467" r="9.293617e-02" gradientTransform="matrix(317.9999 -498.0006 517.9916 330.7652 681297.25 -649507.625)" gradientUnits="userSpaceOnUse">
		<stop  offset="0" style="stop-color:#FFD600"/>
		<stop  offset="0.4844" style="stop-color:#FF6930"/>
		<stop  offset="0.7344" style="stop-color:#FE3B36"/>
		<stop  offset="1" style="stop-color:#FE3B36;stop-opacity:0"/>
	</radialGradient>
	<path style="fill:url(#SVGID_00000040542207840161467180000015598525494273085357_);" d="M60,0H4C1.8,0,0,1.8,0,4v56
		c0,2.2,1.8,4,4,4h56c2.2,0,4-1.8,4-4V4C64,1.8,62.2,0,60,0z M54,49.1c0,2.5-1.8,4.7-4.4,5c-0.2,0-0.4,0-0.6,0H14.9
		c-2.5,0-4.7-1.9-5-4.4c0-0.3-0.1-0.6-0.1-0.9V15c0-2.6,1.7-4.6,4.2-5.1c0.3-0.1,0.6-0.1,0.9-0.1c11.3,0,22.7,0,34,0
		c2.7,0,4.8,2,5.1,4.6c0,0.1,0,0.3,0,0.4V49.1L54,49.1z"/>
</g>
</svg>
