<?xml version="1.0" encoding="utf-8"?><svg version="1.1" id="Layer_1" xmlns="http://www.w3.org/2000/svg" x="0px" y="0px"
	 viewBox="0 0 64 64" style="enable-background:new 0 0 64 64;" xml:space="preserve">
<style type="text/css">
	.st0{fill:#FFFFFF;}
	.st1{fill:none;}
	.st2{fill:url(#SVGID_1_);}
	.st3{fill:url(#SVGID_00000020394454244390485760000009080315695100064910_);}
	.st4{fill:url(#SVGID_00000121239468278128042920000006218499697904796042_);}
	.st5{fill:url(#SVGID_00000029009576545254347150000008974738992116718735_);}
	.st6{fill:url(#SVGID_00000067213040930599343560000002396988803150465972_);}
	.st7{fill:url(#SVGID_00000050643549516808199160000008811451449481239173_);}
	.st8{fill:url(#SVGID_00000119107978061613451130000010325725767316773308_);}
	.st9{fill:url(#SVGID_00000042013028330805873020000012463438203012231356_);}
</style>
<g>
	<path class="st0" d="M49,9.8c-11.3,0-22.7,0-34,0c-0.3,0-0.6,0-0.9,0.1c-2.5,0.5-4.2,2.6-4.2,5.1v33.9c0,0.3,0,0.6,0.1,0.9
		c0.3,2.4,2.5,4.4,5,4.4h34.2c0.2,0,0.4,0,0.6,0c2.5-0.3,4.5-2.5,4.5-5V14.9c0-0.1,0-0.3,0-0.4C53.9,11.8,51.7,9.8,49,9.8z M32,23.5
		c4.7,0,8.5,3.8,8.5,8.5c0,4.7-3.8,8.5-8.5,8.5c-4.7,0-8.5-3.8-8.5-8.5C23.5,27.3,27.3,23.5,32,23.5z M49,47.2
		c0,1.2-0.7,1.9-1.8,1.9H18.8c-0.7,0-1.4,0-2,0c-1.1,0-1.8-0.7-1.8-1.8V28.6h3.8c-0.9,3.5-0.5,6.8,1.2,9.9c1.2,2.3,3,4.1,5.3,5.4
		c4.5,2.5,10.1,2.3,14.3-0.6c2.4-1.6,4.1-3.8,5.1-6.5c1-2.7,1.1-5.4,0.4-8.2H49V47.2z M49,21.7c0,1-0.7,1.7-1.8,1.7h-5
		c-1,0-1.7-0.7-1.7-1.7c0-1.7,0-3.4,0-5.1c0-1,0.8-1.7,1.7-1.7h5c1,0,1.7,0.7,1.7,1.7C49.1,18.4,49.1,20.1,49,21.7z"/>
	<path class="st1" d="M49,9.8c-11.3,0-22.7,0-34,0c-0.3,0-0.6,0-0.9,0.1c-2.5,0.5-4.2,2.6-4.2,5.1v33.9c0,0.3,0,0.6,0.1,0.9
		c0.3,2.4,2.5,4.4,5,4.4h34.2c0.2,0,0.4,0,0.6,0c2.5-0.3,4.5-2.5,4.5-5V14.9c0-0.1,0-0.3,0-0.4C53.9,11.8,51.7,9.8,49,9.8z M32,23.5
		c4.7,0,8.5,3.8,8.5,8.5c0,4.7-3.8,8.5-8.5,8.5c-4.7,0-8.5-3.8-8.5-8.5C23.5,27.3,27.3,23.5,32,23.5z M49,47.2
		c0,1.2-0.7,1.9-1.8,1.9H18.8c-0.7,0-1.4,0-2,0c-1.1,0-1.8-0.7-1.8-1.8V28.6h3.8c-0.9,3.5-0.5,6.8,1.2,9.9c1.2,2.3,3,4.1,5.3,5.4
		c4.5,2.5,10.1,2.3,14.3-0.6c2.4-1.6,4.1-3.8,5.1-6.5c1-2.7,1.1-5.4,0.4-8.2H49V47.2z M49,21.7c0,1-0.7,1.7-1.8,1.7h-5
		c-1,0-1.7-0.7-1.7-1.7c0-1.7,0-3.4,0-5.1c0-1,0.8-1.7,1.7-1.7h5c1,0,1.7,0.7,1.7,1.7C49.1,18.4,49.1,20.1,49,21.7z"/>
	<path d="M47.3,15h-5c-1,0-1.7,0.7-1.7,1.7c0,1.7,0,3.4,0,5.1c0,1,0.8,1.7,1.7,1.7h5c1,0,1.8-0.7,1.8-1.7c0-1.7,0-3.4,0-5
		C49,15.7,48.3,15,47.3,15z"/>

		<radialGradient id="SVGID_1_" cx="-109.9979" cy="784.105" r="9.293617e-02" gradientTransform="matrix(-593.0016 -1227.9952 -1826.5042 882.0229 1367006.125 -826584.4375)" gradientUnits="userSpaceOnUse">
		<stop  offset="0.2439" style="stop-color:#FF1B90"/>
		<stop  offset="0.4367" style="stop-color:#F80261"/>
		<stop  offset="0.6885" style="stop-color:#ED00C0"/>
		<stop  offset="0.7768" style="stop-color:#C500E9"/>
		<stop  offset="0.8932" style="stop-color:#7017FF"/>
	</radialGradient>
	<path class="st2" d="M47.3,15h-5c-1,0-1.7,0.7-1.7,1.7c0,1.7,0,3.4,0,5.1c0,1,0.8,1.7,1.7,1.7h5c1,0,1.8-0.7,1.8-1.7
		c0-1.7,0-3.4,0-5C49,15.7,48.3,15,47.3,15z"/>

		<radialGradient id="SVGID_00000081643228175534542480000003191165388003610245_" cx="-109.9133" cy="785.3395" r="9.293617e-02" gradientTransform="matrix(317.9999 -498.0006 -517.9916 -330.7652 441770.875 205101.3438)" gradientUnits="userSpaceOnUse">
		<stop  offset="0" style="stop-color:#FFD600"/>
		<stop  offset="0.4844" style="stop-color:#FF6930"/>
		<stop  offset="0.7344" style="stop-color:#FE3B36"/>
		<stop  offset="1" style="stop-color:#FE3B36;stop-opacity:0"/>
	</radialGradient>
	<path style="fill:url(#SVGID_00000081643228175534542480000003191165388003610245_);" d="M47.3,15h-5c-1,0-1.7,0.7-1.7,1.7
		c0,1.7,0,3.4,0,5.1c0,1,0.8,1.7,1.7,1.7h5c1,0,1.8-0.7,1.8-1.7c0-1.7,0-3.4,0-5C49,15.7,48.3,15,47.3,15z"/>
	<path d="M32,40.5c4.7,0,8.5-3.8,8.5-8.5c0-4.7-3.8-8.5-8.5-8.5c-4.7,0-8.5,3.8-8.5,8.5C23.5,36.7,27.3,40.5,32,40.5z"/>

		<radialGradient id="SVGID_00000050636190287999778210000001006141681441875339_" cx="-109.9979" cy="784.105" r="9.293617e-02" gradientTransform="matrix(-593.0016 -1227.9952 -1826.5042 882.0229 1367006.125 -826584.4375)" gradientUnits="userSpaceOnUse">
		<stop  offset="0.2439" style="stop-color:#FF1B90"/>
		<stop  offset="0.4367" style="stop-color:#F80261"/>
		<stop  offset="0.6885" style="stop-color:#ED00C0"/>
		<stop  offset="0.7768" style="stop-color:#C500E9"/>
		<stop  offset="0.8932" style="stop-color:#7017FF"/>
	</radialGradient>
	<path style="fill:url(#SVGID_00000050636190287999778210000001006141681441875339_);" d="M32,40.5c4.7,0,8.5-3.8,8.5-8.5
		c0-4.7-3.8-8.5-8.5-8.5c-4.7,0-8.5,3.8-8.5,8.5C23.5,36.7,27.3,40.5,32,40.5z"/>

		<radialGradient id="SVGID_00000118388104126911909950000005404533617333544080_" cx="-109.9133" cy="785.3395" r="9.293617e-02" gradientTransform="matrix(317.9999 -498.0006 -517.9916 -330.7652 441770.875 205101.3438)" gradientUnits="userSpaceOnUse">
		<stop  offset="0" style="stop-color:#FFD600"/>
		<stop  offset="0.4844" style="stop-color:#FF6930"/>
		<stop  offset="0.7344" style="stop-color:#FE3B36"/>
		<stop  offset="1" style="stop-color:#FE3B36;stop-opacity:0"/>
	</radialGradient>
	<path style="fill:url(#SVGID_00000118388104126911909950000005404533617333544080_);" d="M32,40.5c4.7,0,8.5-3.8,8.5-8.5
		c0-4.7-3.8-8.5-8.5-8.5c-4.7,0-8.5,3.8-8.5,8.5C23.5,36.7,27.3,40.5,32,40.5z"/>
	<path d="M44.8,36.8c-1,2.7-2.7,4.8-5.1,6.5c-4.3,2.9-9.9,3.2-14.3,0.6c-2.3-1.3-4-3.1-5.3-5.4c-1.7-3.1-2.1-6.5-1.2-9.9H15v18.6
		c0,1.1,0.7,1.8,1.8,1.8c0.7,0,1.4,0,2,0h28.4c1.2,0,1.8-0.7,1.8-1.9V28.6h-3.9C45.9,31.4,45.8,34.1,44.8,36.8z"/>

		<radialGradient id="SVGID_00000099639835544506984710000017145500357948937607_" cx="-109.9979" cy="784.105" r="9.293617e-02" gradientTransform="matrix(-593.0016 -1227.9952 -1826.5042 882.0229 1367006.125 -826584.4375)" gradientUnits="userSpaceOnUse">
		<stop  offset="0.2439" style="stop-color:#FF1B90"/>
		<stop  offset="0.4367" style="stop-color:#F80261"/>
		<stop  offset="0.6885" style="stop-color:#ED00C0"/>
		<stop  offset="0.7768" style="stop-color:#C500E9"/>
		<stop  offset="0.8932" style="stop-color:#7017FF"/>
	</radialGradient>
	<path style="fill:url(#SVGID_00000099639835544506984710000017145500357948937607_);" d="M44.8,36.8c-1,2.7-2.7,4.8-5.1,6.5
		c-4.3,2.9-9.9,3.2-14.3,0.6c-2.3-1.3-4-3.1-5.3-5.4c-1.7-3.1-2.1-6.5-1.2-9.9H15v18.6c0,1.1,0.7,1.8,1.8,1.8c0.7,0,1.4,0,2,0h28.4
		c1.2,0,1.8-0.7,1.8-1.9V28.6h-3.9C45.9,31.4,45.8,34.1,44.8,36.8z"/>

		<radialGradient id="SVGID_00000150062678623903177080000014858260730593618063_" cx="-109.9133" cy="785.3395" r="9.293617e-02" gradientTransform="matrix(317.9999 -498.0006 -517.9916 -330.7652 441770.875 205101.3438)" gradientUnits="userSpaceOnUse">
		<stop  offset="0" style="stop-color:#FFD600"/>
		<stop  offset="0.4844" style="stop-color:#FF6930"/>
		<stop  offset="0.7344" style="stop-color:#FE3B36"/>
		<stop  offset="1" style="stop-color:#FE3B36;stop-opacity:0"/>
	</radialGradient>
	<path style="fill:url(#SVGID_00000150062678623903177080000014858260730593618063_);" d="M44.8,36.8c-1,2.7-2.7,4.8-5.1,6.5
		c-4.3,2.9-9.9,3.2-14.3,0.6c-2.3-1.3-4-3.1-5.3-5.4c-1.7-3.1-2.1-6.5-1.2-9.9H15v18.6c0,1.1,0.7,1.8,1.8,1.8c0.7,0,1.4,0,2,0h28.4
		c1.2,0,1.8-0.7,1.8-1.9V28.6h-3.9C45.9,31.4,45.8,34.1,44.8,36.8z"/>
	<path d="M60,0H4C1.8,0,0,1.8,0,4v56c0,2.2,1.8,4,4,4h56c2.2,0,4-1.8,4-4V4C64,1.8,62.2,0,60,0z M54.1,49.1c0,2.5-1.9,4.7-4.5,5
		c-0.2,0-0.4,0-0.6,0H14.9c-2.5,0-4.7-1.9-5-4.4c0-0.3-0.1-0.6-0.1-0.9V15c0-2.6,1.7-4.6,4.2-5.1c0.3-0.1,0.6-0.1,0.9-0.1
		c11.3,0,22.7,0,34,0c2.7,0,4.8,2,5.1,4.6c0,0.1,0,0.3,0,0.4V49.1z"/>

		<radialGradient id="SVGID_00000175320918058678159010000010548608613903532682_" cx="-109.9979" cy="784.105" r="9.293617e-02" gradientTransform="matrix(-593.0016 -1227.9952 -1826.5042 882.0229 1367006.125 -826584.4375)" gradientUnits="userSpaceOnUse">
		<stop  offset="0.2439" style="stop-color:#FF1B90"/>
		<stop  offset="0.4367" style="stop-color:#F80261"/>
		<stop  offset="0.6885" style="stop-color:#ED00C0"/>
		<stop  offset="0.7768" style="stop-color:#C500E9"/>
		<stop  offset="0.8932" style="stop-color:#7017FF"/>
	</radialGradient>
	<path style="fill:url(#SVGID_00000175320918058678159010000010548608613903532682_);" d="M60,0H4C1.8,0,0,1.8,0,4v56
		c0,2.2,1.8,4,4,4h56c2.2,0,4-1.8,4-4V4C64,1.8,62.2,0,60,0z M54.1,49.1c0,2.5-1.9,4.7-4.5,5c-0.2,0-0.4,0-0.6,0H14.9
		c-2.5,0-4.7-1.9-5-4.4c0-0.3-0.1-0.6-0.1-0.9V15c0-2.6,1.7-4.6,4.2-5.1c0.3-0.1,0.6-0.1,0.9-0.1c11.3,0,22.7,0,34,0
		c2.7,0,4.8,2,5.1,4.6c0,0.1,0,0.3,0,0.4V49.1z"/>

		<radialGradient id="SVGID_00000014595116565747293160000012951533435353219491_" cx="-109.9133" cy="785.3395" r="9.293617e-02" gradientTransform="matrix(317.9999 -498.0006 -517.9916 -330.7652 441770.875 205101.3438)" gradientUnits="userSpaceOnUse">
		<stop  offset="0" style="stop-color:#FFD600"/>
		<stop  offset="0.4844" style="stop-color:#FF6930"/>
		<stop  offset="0.7344" style="stop-color:#FE3B36"/>
		<stop  offset="1" style="stop-color:#FE3B36;stop-opacity:0"/>
	</radialGradient>
	<path style="fill:url(#SVGID_00000014595116565747293160000012951533435353219491_);" d="M60,0H4C1.8,0,0,1.8,0,4v56
		c0,2.2,1.8,4,4,4h56c2.2,0,4-1.8,4-4V4C64,1.8,62.2,0,60,0z M54.1,49.1c0,2.5-1.9,4.7-4.5,5c-0.2,0-0.4,0-0.6,0H14.9
		c-2.5,0-4.7-1.9-5-4.4c0-0.3-0.1-0.6-0.1-0.9V15c0-2.6,1.7-4.6,4.2-5.1c0.3-0.1,0.6-0.1,0.9-0.1c11.3,0,22.7,0,34,0
		c2.7,0,4.8,2,5.1,4.6c0,0.1,0,0.3,0,0.4V49.1z"/>
</g>
</svg>
