<?xml version="1.0" encoding="utf-8"?>
<svg version="1.1" id="Layer_1" xmlns="http://www.w3.org/2000/svg" x="0px" y="0px"
	 viewBox="0 0 64 64" style="enable-background:new 0 0 64 64;" xml:space="preserve">
<style type="text/css">
	.st0{fill:#FFFFFF;}
	.st1{fill:#0B65C3;}
</style>
<g>
	<path class="st0" d="M34.7,53.2v-16c0-0.8,0.1-1.7,0.3-2.3c0.7-1.7,2.3-3.5,4.9-3.5c3.4,0,4.8,2.7,4.8,6.5v15.3h9.5V36.8
		c0-8.8-4.6-12.9-10.9-12.9c-5.1,0-7.3,2.8-8.6,4.7v-4h-9.5c0.1,2.7,0,28.6,0,28.6H34.7z"/>
	<rect x="10.4" y="24.6" class="st0" width="9.5" height="28.6"/>
	<path class="st0" d="M15.2,20.7c3.3,0,5.3-2.2,5.4-4.9c-0.1-2.8-2-4.9-5.3-4.9S9.9,13,9.9,15.8C9.9,18.5,12,20.7,15.2,20.7z"/>
	<path class="st1" d="M0,0v64h64V0H0z M15.2,20.7c-3.2,0-5.3-2.2-5.3-4.9c0-2.8,2.1-4.9,5.4-4.9s5.2,2.1,5.3,4.9
		C20.5,18.5,18.5,20.7,15.2,20.7z M19.9,24.6v28.6h-9.5V24.6H19.9z M54.2,53.2h-9.5V37.9c0-3.8-1.4-6.5-4.8-6.5
		c-2.6,0-4.2,1.8-4.9,3.5c-0.2,0.6-0.3,1.5-0.3,2.3v16h-9.5c0,0,0.1-25.9,0-28.6h9.5v4c1.3-1.9,3.5-4.7,8.6-4.7
		c6.3,0,10.9,4.1,10.9,12.9V53.2z"/>
</g>
</svg>
