<?xml version="1.0" encoding="utf-8"?>
<svg version="1.1" id="Слой_1" xmlns="http://www.w3.org/2000/svg" x="0px" y="0px"
	 viewBox="0 0 64 64" style="enable-background:new 0 0 64 64;" xml:space="preserve">
<style type="text/css">
	.st0{fill:#FFFFFF;}
	.st1{fill:#3490ED;}
</style>
<rect x="2" y="2" class="st0" width="60" height="60"/>
<g>
	<g>
		<path class="st1" d="M0,4v56c0,2.2,1.8,4,4,4h56c2.2,0,4-1.8,4-4V4c0-2.2-1.8-4-4-4H4C1.8,0,0,1.8,0,4z M53.1,14.2l-7.5,36.2
			c-0.2,0.9-1.2,1.2-1.9,0.7l-10.3-7.5c-0.6-0.5-1.5-0.4-2.1,0.1l-5.7,4.6c-0.7,0.5-1.7,0.2-1.9-0.6l-3.4-10.8
			c-0.4-1.2-1.3-2.1-2.4-2.5l-8.3-3.1c-1-0.4-1-1.9,0-2.3l41.9-16.2C52.4,12.5,53.3,13.2,53.1,14.2z"/>
		<path class="st1" d="M43.1,20.7L23.2,33c-0.8,0.5-1.1,1.4-0.9,2.3l2.2,7.6c0.2,0.5,0.9,0.5,1-0.1l0.6-4.2c0.1-0.8,0.5-1.5,1.1-2
			l16.5-15.3C43.8,21,43.5,20.5,43.1,20.7z"/>
	</g>
</g>
</svg>
