<?xml version="1.0" encoding="utf-8"?>
<svg version="1.1" id="Слой_1" xmlns="http://www.w3.org/2000/svg" x="0px" y="0px"
	 viewBox="0 0 64 64" style="enable-background:new 0 0 64 64;" xml:space="preserve">
<style type="text/css">
	.st0{fill:#FFFFFF;}
	.st1{fill:#3490ED;}
</style>
<g>
	<path class="st0" d="M9.6,31.2L19.7,35l4,12.7c0.2,0.8,1.2,1.1,1.9,0.6l5.7-4.6c0.6-0.5,1.5-0.6,2.1-0.1l10.3,7.5
		c0.7,0.5,1.7,0.2,1.9-0.7l7.5-36.2c0.2-1-0.7-1.7-1.6-1.5L9.6,28.9C8.6,29.3,8.6,30.8,9.6,31.2z M23.2,33l19.9-12.3
		c0.4-0.2,0.7,0.3,0.6,0.6L27.2,36.6c-0.6,0.5-1,1.2-1.1,2l-0.6,4.2c-0.1,0.6-0.8,0.6-1,0.1l-2.2-7.6C22.1,34.4,22.4,33.5,23.2,33z"
		/>
	<g>
		<path class="st1" d="M0,0v64h64V0H0z M53.1,14.2l-7.5,36.2c-0.2,0.9-1.2,1.2-1.9,0.7l-10.3-7.5c-0.6-0.5-1.5-0.4-2.1,0.1l-5.7,4.6
			c-0.7,0.5-1.7,0.2-1.9-0.6l-4-12.7L9.6,31.2c-1-0.4-1-1.9,0-2.3l41.9-16.2C52.4,12.5,53.3,13.2,53.1,14.2z"/>
		<path class="st1" d="M43.1,20.7L23.2,33c-0.8,0.5-1.1,1.4-0.9,2.3l2.2,7.6c0.2,0.5,0.9,0.5,1-0.1l0.6-4.2c0.1-0.8,0.5-1.5,1.1-2
			l16.5-15.3C43.8,21,43.5,20.5,43.1,20.7z"/>
	</g>
</g>
</svg>
